<?xml version="1.0" encoding="UTF-8"?>
<svg version="1.1" xmlns="http://www.w3.org/2000/svg" width="916" height="873">
<path d="M0 0 C0.90079397 -0.00438225 1.80158794 -0.00876451 2.72967869 -0.01327956 C5.7548516 -0.02665764 8.77999537 -0.03284429 11.80519104 -0.03897095 C13.97185396 -0.04687288 16.13851556 -0.05514189 18.30517578 -0.06375122 C25.42829635 -0.08996726 32.55142277 -0.10528141 39.67457581 -0.11953735 C42.12844916 -0.12489776 44.58232248 -0.13027527 47.03619576 -0.13566971 C57.24714747 -0.15730045 67.4580976 -0.1760353 77.66906643 -0.1872921 C92.29069523 -0.20351816 106.91196883 -0.23666124 121.53350204 -0.29369295 C131.81990034 -0.33244308 142.10622757 -0.35193099 152.39269692 -0.35721266 C158.5328382 -0.36085996 164.67269542 -0.37281519 170.81275749 -0.4053154 C176.59534762 -0.43548388 182.37748314 -0.44167632 188.16013527 -0.42993164 C190.27520826 -0.42971162 192.39030289 -0.43795673 194.50530243 -0.45558548 C211.14033413 -0.58662025 223.70607695 1.3090549 236.26441956 13.11483765 C243.25430961 20.31260547 248.30692949 30.13135919 248.30152988 40.34740829 C248.30352093 41.18093724 248.30551198 42.01446619 248.30756336 42.87325358 C248.30465052 43.78375696 248.30173768 44.69426034 248.29873657 45.63235474 C248.30001821 47.08918415 248.30001821 47.08918415 248.30132574 48.57544446 C248.30297626 51.83826861 248.29746612 55.10104165 248.29200745 58.36386108 C248.29172546 60.69939676 248.29188354 63.03493252 248.29244995 65.37046814 C248.29273747 71.71921009 248.28684813 78.06793323 248.27987599 84.4166708 C248.27426688 90.37682169 248.27325339 96.33697184 248.27222412 102.29712501 C248.27003547 114.10241429 248.26338043 125.90769665 248.25392151 137.71298218 C248.24474257 149.18075526 248.23766409 160.64852647 248.2334137 172.11630249 C248.23301961 173.17660308 248.23301961 173.17660308 248.23261756 174.25832388 C248.23131253 177.80446622 248.23004882 181.35060857 248.22880566 184.89675093 C248.21843886 214.31580512 248.20075127 243.73485256 248.17848206 273.15390015 C249.40947002 273.15113477 250.64045799 273.14836939 251.90874863 273.14552021 C281.16302818 273.08047589 310.41729124 273.03104323 339.67162524 273.00070416 C343.27628727 272.99695226 346.88094916 272.99306928 350.48561096 272.98910522 C351.2032014 272.98831829 351.92079183 272.98753136 352.66012743 272.98672058 C364.26269269 272.9736846 375.86521312 272.95004077 387.46775183 272.92244176 C399.38265773 272.89433715 411.29754024 272.87771322 423.21247792 272.87163466 C429.90086641 272.8678961 436.58914715 272.85856678 443.27750397 272.83670998 C449.57785431 272.8162887 455.87806171 272.81007781 462.178442 272.8145771 C464.4858166 272.81375443 466.79319617 272.80782261 469.10054207 272.79628372 C501.06361428 272.64433154 501.06361428 272.64433154 513.65895081 284.4859314 C522.64998314 294.03431974 526.49960935 303.62206256 526.44590759 316.70388794 C526.45043871 317.52713413 526.45496982 318.35038031 526.45963824 319.19857335 C526.47222559 321.93732125 526.47066555 324.67586884 526.4690094 327.41464233 C526.47499821 329.38647719 526.48180457 331.3583097 526.48936462 333.33013916 C526.50699643 338.67328856 526.51171883 344.01637385 526.5129962 349.35954952 C526.51442001 352.70184682 526.518694 356.04412793 526.52399063 359.3864212 C526.54248197 371.05827363 526.55066241 382.73008044 526.54908752 394.40194702 C526.54788655 405.2628301 526.5689826 416.12351433 526.60057485 426.98434711 C526.62677127 436.32475551 526.6374534 445.66509911 526.63617671 455.00554395 C526.63566804 460.57712886 526.64129838 466.14853699 526.66253281 471.72008514 C526.68197172 476.96345521 526.682001 482.20648085 526.66749954 487.44986343 C526.66541732 489.36700319 526.67007709 491.28416482 526.68222046 493.20126724 C526.77341551 508.60416657 525.08918632 521.54704711 514.17848206 533.31015015 C504.57952921 542.4977193 494.27390266 545.28430132 481.33078003 545.33230591 C480.45136739 545.33936058 479.57195476 545.34641526 478.66589326 545.35368371 C475.72519667 545.37602863 472.78450592 545.39145039 469.84376526 545.40682983 C467.7326736 545.42132492 465.62158453 545.43620163 463.51049805 545.45143127 C457.77891643 545.49128181 452.04731543 545.52464962 446.3156817 545.55601788 C442.73252534 545.57575718 439.14937702 545.59660166 435.56622887 545.61777496 C424.34878725 545.68371933 413.13133394 545.74566522 401.91383964 545.80195403 C388.97715834 545.86691187 376.0406456 545.94503972 363.10411197 546.03463626 C353.09630653 546.10315067 343.08847698 546.15990621 333.0805518 546.20780301 C327.10710405 546.23665017 321.13378261 546.27042926 315.16044044 546.31645966 C309.53884116 546.35945402 303.91735327 546.38780596 298.29561806 546.40511513 C296.23774278 546.41393186 294.17988184 546.42792231 292.12208176 546.44759941 C273.54809054 546.61984534 259.49410525 544.3562724 245.42848206 531.02890015 C240.47339236 525.81189857 236.79555537 520.25247027 233.24586487 514.0171814 C221.76537928 493.97622394 208.37016268 475.34509577 194.17848206 457.15390015 C193.2212057 455.91711065 192.26416727 454.68013696 191.30738831 453.44296265 C185.96498387 446.56181046 180.4489223 439.8560991 174.79176331 433.23202515 C172.39965936 430.42682695 170.06392354 427.57926857 167.74098206 424.71640015 C159.53744243 414.66560958 151.08239323 404.90168037 142.16212463 395.47909546 C139.35883007 392.51454032 136.61911482 389.52148733 133.96363831 386.4234314 C129.66544484 381.48089635 125.05779723 376.84715731 120.42799377 372.21810913 C118.93954968 370.72748399 117.45930929 369.22902998 115.97926331 367.73007202 C110.43708595 362.15618733 104.75052246 356.97943812 98.58058167 352.08847046 C96.29868124 350.25070453 94.13824021 348.33356335 91.99098206 346.34140015 C70.86892575 327.40308585 45.50604714 312.83210066 20.36598206 300.02890015 C-6.1345715 286.50110141 -32.9896256 269.65650192 -42.8699894 240.00766373 C-43.89544394 235.85449418 -44.10637637 232.00041185 -44.08894348 227.75540161 C-44.09347459 226.93638784 -44.09800571 226.11737406 -44.10267413 225.27354169 C-44.11528254 222.54317329 -44.11370006 219.81300528 -44.11204529 217.08261108 C-44.1180328 215.11915329 -44.12483885 213.15569785 -44.13240051 211.19224548 C-44.15004595 205.86769843 -44.15475531 200.5432157 -44.15603209 195.21864223 C-44.15745517 191.88892132 -44.16172777 188.55921668 -44.16702652 185.22949982 C-44.18552261 173.60419174 -44.19369773 161.97892948 -44.19212341 150.35360718 C-44.19092242 139.53191933 -44.21201759 128.71043106 -44.24361074 117.88879371 C-44.26979857 108.58578804 -44.28048964 99.28284746 -44.27921259 89.97980523 C-44.27870366 84.42891689 -44.28434882 78.87820593 -44.3055687 73.32735443 C-44.32499301 68.10369888 -44.32504679 62.88038916 -44.31053543 57.65672112 C-44.30845138 55.74561239 -44.313124 53.83448177 -44.32525635 51.92341042 C-44.42031577 35.90516784 -41.90960101 23.6913313 -30.82151794 11.52890015 C-22.18103842 3.13529147 -11.71519511 0.00691512 0 0 Z " fill="#124272" transform="translate(369.82151794433594,25.846099853515625)"/>
<path d="M0 0 C11.15634266 -0.10498947 22.29100461 -0.08947614 33.4375 0.4375 C34.2936792 0.47673584 35.1498584 0.51597168 36.03198242 0.55639648 C39.52592492 0.73675357 42.92321455 0.98857517 46.38671875 1.50390625 C51.37345014 2.18857099 56.34796636 2.32463836 61.375 2.5 C63.36208903 2.5698586 65.34907444 2.64273545 67.3359375 2.71875 C68.20782715 2.74904297 69.0797168 2.77933594 69.97802734 2.81054688 C72.43311439 2.96446088 74.83616541 3.20181137 77.27709961 3.48999023 C81.92586847 4.02495465 86.55677005 4.25410125 91.23046875 4.44140625 C101.96117379 4.92775693 112.62365658 5.89591979 123.3125 6.9375 C126.16800268 7.21121923 129.02363988 7.48349892 131.87930298 7.75553894 C133.73658777 7.93247552 135.59382754 8.1098854 137.45101929 8.28779602 C143.20501558 8.83709418 148.96035314 9.35254989 154.72241211 9.81103516 C162.71379966 10.47478237 170.66608249 11.27473953 178.6171875 12.3203125 C179.60627106 12.45020065 180.59535461 12.58008881 181.6144104 12.71391296 C232.3266896 19.4855105 281.33098522 28.94033453 327 53 C327.67788574 53.35223633 328.35577148 53.70447266 329.05419922 54.06738281 C360.54220498 70.52585639 388.53380664 92.95517416 415.95898438 115.33837891 C417.99433118 116.99538493 420.03525196 118.64525356 422.078125 120.29296875 C430.2549917 126.8941056 438.3051664 133.61749253 446.25146484 140.49414062 C448.07271622 142.06262408 449.90407116 143.61857141 451.73828125 145.171875 C462.54342481 154.33558763 462.54342481 154.33558763 467.33007812 159.33105469 C468.96979595 160.96981362 470.67140367 162.45691783 472.44140625 163.953125 C477.68459135 168.51270344 482.57240205 173.4223472 487.47290039 178.3425293 C489.05959946 179.93458966 490.65157742 181.5212299 492.24414062 183.10742188 C497.70703723 188.5667497 502.98917929 194.11893815 508 200 C509.45445517 201.60768373 510.91220895 203.21239715 512.375 204.8125 C516.62991656 209.5393905 520.71173213 214.37592138 524.67773438 219.34765625 C525.60397666 220.50511707 526.53541732 221.65842821 527.47070312 222.80859375 C548.11101791 248.23173241 565.36696637 276.07605111 579.00146484 305.83544922 C579.81995432 307.60971027 580.66594346 309.37126147 581.51953125 311.12890625 C590.34476072 329.47978023 597.0671519 352.07352613 597.14717102 372.48684692 C597.15790398 374.37890617 597.15790398 374.37890617 597.16885376 376.30918884 C597.17169334 377.68936132 597.17440515 379.06953407 597.17700195 380.44970703 C597.18327521 381.91731422 597.18992276 383.38491986 597.19691467 384.8525238 C597.21785571 389.65427567 597.22830801 394.45602748 597.23828125 399.2578125 C597.24233259 400.91768281 597.24644962 402.57755296 597.25063133 404.23742294 C597.26966147 412.03876123 597.2838968 419.84009018 597.2922433 427.64144719 C597.30200652 436.61619882 597.32831123 445.59070323 597.36874419 454.56536782 C597.39900246 461.52276912 597.41372135 468.48009992 597.41702431 475.43756568 C597.41936375 479.58344969 597.42817889 483.72906893 597.45348549 487.87488174 C597.47694212 491.78039423 597.48092978 495.68547089 597.47072411 499.59103584 C597.47023287 501.01432187 597.47642972 502.43763067 597.49028015 503.86084938 C597.61997073 517.99235111 594.81286058 531.6363255 584.89453125 542.25390625 C580.37694121 546.47602569 575.76857495 549.74612739 570 552 C569.16870134 552.34061997 568.33740269 552.68123995 567.48091316 553.03218174 C563.00670623 554.27617117 558.90727567 554.28649728 554.28585815 554.27415466 C553.31322938 554.27939134 552.34060061 554.28462802 551.33849823 554.29002339 C548.08223185 554.3050144 544.82612273 554.30572835 541.56982422 554.30639648 C539.23375687 554.31401867 536.89769203 554.32244627 534.56163025 554.33161926 C528.21633602 554.35356787 521.87108999 554.36236392 515.52576208 554.36744571 C511.5593353 554.37108948 507.59292114 554.37732973 503.62649918 554.3844471 C492.63225811 554.40400942 481.63802599 554.42041533 470.6437664 554.42332363 C469.94073679 554.4235112 469.23770717 554.42369877 468.51337362 554.42389202 C467.08831636 554.42425826 465.6632591 554.42462196 464.23820184 554.42498314 C463.530855 554.42516595 462.82350816 554.42534876 462.09472656 554.42553711 C461.38651037 554.42571766 460.67829417 554.42589821 459.94861688 554.42608423 C448.48216948 554.42962317 437.01591019 554.45662959 425.54952799 554.494035 C413.76098069 554.53218172 401.97252657 554.55148158 390.18391621 554.55178314 C383.5715924 554.55236635 376.95946637 554.56128735 370.34719467 554.58978081 C364.12381772 554.61599827 357.90088396 554.61814558 351.67747688 554.60212517 C349.39912129 554.60031352 347.12074 554.60697551 344.84243965 554.62294388 C328.92874095 554.72763969 317.17493633 553.89217976 305.12353516 542.52075195 C300.33078094 537.75719298 297.41769555 532.28774779 295 526 C294.47884456 524.67897687 294.47884456 524.67897687 293.94716072 523.3312664 C292.8448682 519.45438472 292.72811742 515.86747856 292.75949097 511.8755188 C292.75692769 510.67338991 292.75692769 510.67338991 292.75431263 509.44697559 C292.75102732 506.77071079 292.76200559 504.0946986 292.77294922 501.41845703 C292.77351354 499.49641424 292.77319636 497.57437103 292.77206421 495.65232849 C292.77149051 490.44000228 292.78324764 485.22776817 292.79721212 480.01546335 C292.8097166 474.56621168 292.81088976 469.11695789 292.81326294 463.66769409 C292.81947853 453.35120228 292.83589045 443.03475286 292.85596192 432.71827972 C292.87831843 420.97229986 292.88931373 409.22631797 292.89935279 397.48032212 C292.92025658 373.32019124 292.95543414 349.160098 293 325 C294.76834549 325.1506925 296.53644847 325.3042327 298.30444336 325.45898438 C299.28908066 325.54418335 300.27371796 325.62938232 301.28819275 325.71716309 C312.17104971 326.85222668 319.72494975 332.69062617 326.59375 340.90625 C332.48526983 349.38429074 335.12896946 360.97676054 335.12025452 371.18196106 C335.12163201 372.42313848 335.12300951 373.66431589 335.12442875 374.94310474 C335.12088239 376.31599259 335.11724449 377.68888019 335.11352539 379.06176758 C335.11321892 380.5341857 335.11335277 382.00660397 335.11389065 383.47902203 C335.11411614 387.41736014 335.1083258 391.35566779 335.10128021 395.29399872 C335.09557975 398.99136957 335.09531679 402.68873307 335.09460449 406.3861084 C335.08935991 417.19490962 335.07539873 428.0037052 335.0625 438.8125 C335.041875 462.964375 335.02125 487.11625 335 512 C409.58 512 484.16 512 561 512 C560.814375 479.391875 560.814375 479.391875 560.625 446.125 C560.59100098 439.27250488 560.55700195 432.42000977 560.52197266 425.35986328 C560.48204334 419.1928471 560.48204334 419.1928471 560.43954468 413.02584839 C560.42191183 410.28874535 560.40735695 407.55179285 560.39730835 404.81466675 C560.38183327 400.65774484 560.35083288 396.50106594 560.31884766 392.34423828 C560.31667551 391.13422716 560.31450336 389.92421604 560.3122654 388.67753792 C560.14190066 371.40638857 554.95949753 357.98591645 542.8125 345.7421875 C541.884375 344.83726562 540.95625 343.93234375 540 343 C539.195625 342.19820312 538.39125 341.39640625 537.5625 340.5703125 C518.42295044 322.37514861 491.94289606 312.2803605 467 305 C466.03852051 304.71930664 465.07704102 304.43861328 464.08642578 304.14941406 C444.97575389 298.67632908 425.83625289 295.28925312 406.04296875 293.515625 C405.3392193 293.45180193 404.63546986 293.38797886 403.91039467 293.32222176 C387.13902115 291.81425974 370.34139969 290.90827076 353.52612305 290.05633545 C292.69101114 286.96504296 292.69101114 286.96504296 265.21606445 283.56030273 C262.16955403 283.18529093 259.12117323 282.82954085 256.07226562 282.47460938 C243.03730651 280.90888274 230.33086211 278.55649334 217.5458374 275.58274841 C214.97398618 274.99404537 212.39693948 274.43895402 209.81542969 273.89428711 C163.5846331 264.12518157 115.94994939 244.17925347 78 216 C77.19046875 215.40574219 76.3809375 214.81148437 75.546875 214.19921875 C68.97089258 209.24357732 62.9656519 203.66168096 57 198 C56.44119141 197.47519043 55.88238281 196.95038086 55.30664062 196.40966797 C19.81971428 162.89757905 -1.60631655 116.63982501 -10 69 C-10.14566406 68.19046875 -10.29132812 67.3809375 -10.44140625 66.546875 C-10.86542258 64.1784955 -11.27949161 61.8086865 -11.6875 59.4375 C-11.80697998 58.74841553 -11.92645996 58.05933105 -12.04956055 57.34936523 C-13.73075453 47.17333301 -14.14096378 37.11539793 -14.0625 26.8125 C-14.05798828 25.66974609 -14.05347656 24.52699219 -14.04882812 23.34960938 C-14.03718268 20.5663489 -14.02082997 17.78320428 -14 15 C-13.34 15 -12.68 15 -12 15 C-11.57332031 15.93457031 -11.14664062 16.86914062 -10.70703125 17.83203125 C4.50089636 50.15044202 30.73724484 80.36523609 59 102 C59.97710937 102.78246094 60.95421875 103.56492187 61.9609375 104.37109375 C111.27434864 143.6411818 174.38257244 166.35022017 236 177 C236.92893066 177.1645166 237.85786133 177.3290332 238.81494141 177.49853516 C265.87153118 182.21961141 294.50452008 185.51446844 322 185 C320.71609375 184.82984375 319.4321875 184.6596875 318.109375 184.484375 C306.39406548 182.89343463 294.83851787 180.89594572 283.26904297 178.46875 C281.16287705 178.03364794 279.05419363 177.6202894 276.94140625 177.21875 C269.70496146 175.83320802 262.61382073 174.17795055 255.51171875 172.21875 C251.98462462 171.25139317 248.44332591 170.35310378 244.89453125 169.46875 C230.60799904 165.88958241 216.63980787 161.80382114 202.73583984 156.94677734 C200.20265428 156.07013147 197.66150918 155.22623368 195.11328125 154.39453125 C154.38703592 140.92396179 115.4810973 120.421958 81 95 C80.05398926 94.30849854 80.05398926 94.30849854 79.08886719 93.60302734 C71.89417779 88.32022722 65.19916365 82.61333671 58.6953125 76.51171875 C56.52443572 74.48871329 54.3253999 72.54231059 52.0625 70.625 C42.46098571 62.26368131 33.80700514 53.0495919 26 43 C25.18917969 41.98292969 24.37835938 40.96585937 23.54296875 39.91796875 C0 10.17184491 0 10.17184491 0 0 Z " fill="#114576" transform="translate(33,291)"/>
<path d="M0 0 C0.99 0 1.98 0 3 0 C4.20577428 4.94367454 3.6290678 8.20862412 2 13 C0.68 11.35 -0.64 9.7 -2 8 C-2 8.66 -2 9.32 -2 10 C-2.66 9.67 -3.32 9.34 -4 9 C-2.94124926 5.59687262 -1.99097846 2.98646769 0 0 Z " fill="#0E4D81" transform="translate(149,344)"/>
<path d="M0 0 C2.16874252 0.50603992 3.99967627 0.99983813 6 2 C6 1.34 6 0.68 6 0 C6.66 0 7.32 0 8 0 C7.67 1.65 7.34 3.3 7 5 C4.07120629 4.37240135 1.63904371 3.41377341 -1 2 C-0.67 1.34 -0.34 0.68 0 0 Z " fill="#133E6D" transform="translate(539,542)"/>
<path d="M0 0 C3 0 3 0 4.6875 1.5 C5.120625 1.995 5.55375 2.49 6 3 C5.34 3 4.68 3 4 3 C3.67 3.99 3.34 4.98 3 6 C1.0625 5.6875 1.0625 5.6875 -1 5 C-1.33 4.01 -1.66 3.02 -2 2 C-1.34 1.34 -0.68 0.68 0 0 Z " fill="#0E4C81" transform="translate(351,64)"/>
<path d="M0 0 C1.32 1.32 2.64 2.64 4 4 C2.68 4.33 1.36 4.66 0 5 C0 5.66 0 6.32 0 7 C-0.66 6.67 -1.32 6.34 -2 6 C-2 2 -2 2 0 0 Z " fill="#0E4C81" transform="translate(334,81)"/>
<path d="M0 0 C1.32 0 2.64 0 4 0 C4 0.99 4 1.98 4 3 C1.5 5.1875 1.5 5.1875 -1 7 C-0.67 4.69 -0.34 2.38 0 0 Z " fill="#0E4D81" transform="translate(129,366)"/>
</svg>
